<svg width="910.288" height="910.287" xmlns="http://www.w3.org/2000/svg">

 <g>
  <title>background</title>
  <rect fill="#ff8700" id="canvas_background" height="912.287" width="912.288" y="-1" x="-1"/>
 </g>
 <g>
  <title>Layer 1</title>
  <path stroke="null" id="svg_1" fill="#ffffff" d="m833.227024,226.262487l-1.096096,-25.783575l-25.671434,-2.636238c-98.608836,-10.12713 -183.381723,-46.925021 -237.134735,-76.011354c-58.873552,-31.857322 -94.560879,-61.744926 -94.88826,-62.020759l-19.273019,-16.284982l-19.285681,16.261469c-0.354513,0.298442 -36.041839,30.18695 -94.914487,62.043367c-53.753012,29.086333 -138.524994,65.884225 -237.13383,76.011355l-25.672338,2.636237l-1.096096,25.783576c-0.196248,4.615902 -4.320174,114.581811 38.036878,247.740276c24.994061,78.577956 61.089257,148.98222 107.282645,209.267493c58.005357,75.696634 131.990924,135.366032 219.901973,177.348674l12.861039,6.143382l12.86104,-6.143382c87.911049,-41.982642 161.89752,-101.649327 219.901973,-177.348674c46.194292,-60.283464 82.289489,-130.690441 107.283549,-209.266588c42.356147,-133.157561 38.233127,-243.12347 38.036879,-247.740277zm-378.083441,574.157086c-73.339847,-37.268165 -135.412154,-88.526021 -184.666832,-152.518305c-41.956416,-54.510873 -74.89265,-118.4706 -97.896193,-190.09938c-28.11504,-87.550206 -34.420305,-165.629854 -35.69637,-203.969696c39.552601,-5.872975 79.538396,-15.755021 119.225749,-29.479733c38.797453,-13.417227 77.412223,-30.524281 114.770824,-50.84456c37.906649,-20.617817 66.751515,-40.310463 84.261918,-53.187781c17.510403,12.876414 46.356174,32.569964 84.262823,53.187781c37.358601,20.321184 75.973371,37.427333 114.770824,50.84456c39.698205,13.729234 79.695756,23.611279 119.25921,29.484255c-1.229038,37.963624 -7.410404,114.943559 -35.127521,202.075042c-22.895924,71.982388 -55.794174,136.263166 -97.780434,191.055299c-49.372246,64.429998 -111.687829,116.002575 -185.383998,153.452518z"/>
  <path stroke="null" id="svg_2" fill="#ffffff" d="m576.093718,414.086929l-22.666378,0l0,-57.440673c0.000735,-40.810227 -34.224384,-73.852288 -76.495815,-73.852288l-44.198006,0c-42.271422,0 -76.49655,33.042062 -76.49655,73.852288l0,57.440673l-22.099008,0c-11.219488,0 -20.399073,8.862272 -20.399073,19.693948l0,174.017518c0,10.830959 9.179585,19.694664 20.399073,19.694664l242.012054,0c11.218753,0 20.399082,-8.863705 20.399082,-19.694664l0,-174.017518c-0.056297,-10.831675 -9.235882,-19.693948 -20.455379,-19.693948zm-107.832174,129.105462l0,21.882163c0,7.221111 -6.11972,13.128576 -13.599388,13.128576s-13.599379,-5.908182 -13.599379,-13.128576l0,-21.882163c-16.772581,-5.470539 -28.898701,-20.788056 -28.898701,-38.841549c0,-22.647322 19.039143,-41.029048 42.49808,-41.029048s42.498089,18.381726 42.498089,41.029048c0.000735,18.052786 -12.012791,33.370294 -28.898701,38.841549zm40.798164,-129.105462l-108.795094,0l0,-47.593694c0,-21.772752 18.24584,-39.387896 40.798164,-39.387896l27.198767,0c22.552314,0 40.798164,17.615143 40.798164,39.387896l0,47.593694z"/>
 </g>
</svg>